<svg width="83" height="83" viewBox="0 0 83 83" fill="none" xmlns="http://www.w3.org/2000/svg">
<path d="M41.9328 77.1333L37.1536 68.8554C33.0662 61.7758 34.553 53.0076 40.2522 47.6329L45.0315 55.9108C49.1189 62.9904 47.6321 71.7586 41.9328 77.1333Z" stroke="#313236" stroke-width="8"/>
<path d="M41.1785 5.86671L45.9577 14.1446C50.0451 21.2242 48.5583 29.9924 42.8591 35.3671L38.0798 27.0892C33.9924 20.0096 35.4792 11.2414 41.1785 5.86671Z" stroke="#313236" stroke-width="8"/>
<path d="M5.86671 41.7434L14.1446 36.9641C21.2242 32.8767 29.9924 34.3635 35.3671 40.0628L27.0892 44.842C20.0096 48.9294 11.2414 47.4426 5.86671 41.7434Z" stroke="#313236" stroke-width="8"/>
<path d="M77.1333 40.9871L68.8554 45.7663C61.7758 49.8537 53.0076 48.3669 47.6329 42.6677L55.9108 37.8884C62.9904 33.801 71.7586 35.2878 77.1333 40.9871Z" stroke="#313236" stroke-width="8"/>
</svg>
